{
    "asset" : {
        "generator" : "Khronos glTF Blender I/O v1.8.19",
        "version" : "2.0"
    },
    "scene" : 0,
    "scenes" : [
        {
            "name" : "Scene",
            "nodes" : [
                2
            ]
        }
    ],
    "nodes" : [
        {
            "mesh" : 0,
            "name" : "child1",
            "scale" : [
                0.5,
                0.5,
                0.5
            ],
            "translation" : [
                0,
                -1.4954617023468018,
                -1.5035443305969238
            ]
        },
        {
            "mesh" : 1,
            "name" : "child2",
            "rotation" : [
                0,
                0.38187703490257263,
                0,
                0.924213171005249
            ],
            "scale" : [
                0.5,
                0.5,
                0.5
            ],
            "translation" : [
                0,
                -1.5051263570785522,
                1.4907642602920532
            ]
        },
        {
            "children" : [
                0,
                1
            ],
            "mesh" : 2,
            "name" : "root"
        }
    ],
    "materials" : [
        {
            "doubleSided" : true,
            "extras" : {
                "diffuse_color" : [
                    0.0,
                    0.0,
                    1.0
                ],
                "specular_color" : [
                    1,
                    1,
                    1
                ],
                "ambient_color" : [
                    0.25,
                    0.25,
                    0.25
                ],
                "shininess_factor" : 2.0
            },
            "name" : "Material.002",
            "pbrMetallicRoughness" : {}
        },
        {
            "doubleSided" : true,
            "extras" : {
                "diffuse_color" : [
                    0.0,
                    1.0,
                    0.0
                ],
                "specular_color" : [
                    1.0,
                    1.0,
                    1.0
                ],
                "ambient_color" : [
                    0.5,
                    0.5,
                    0.5
                ],
                "shininess_factor" : 2.0
            },
            "name" : "Material.003",
            "pbrMetallicRoughness" : {}
        },
        {
            "doubleSided" : true,
            "extras" : {
                "diffuse_color" : [
                    0.5,
                    0.5,
                    0.5
                ],
                "specular_color" : [
                    1.0,
                    1.0,
                    1.0
                ],
                "ambient_color" : [
                    1.0,
                    0.0,
                    0.0
                ],
                "shininess_factor" : 5.0
            },
            "name" : "Material.001",
            "pbrMetallicRoughness" : {}
        }
    ],
    "meshes" : [
        {
            "name" : "Cube.002",
            "primitives" : [
                {
                    "attributes" : {
                        "POSITION" : 0
                    },
                    "indices" : 1,
                    "material" : 0
                }
            ]
        },
        {
            "name" : "Cube.003",
            "primitives" : [
                {
                    "attributes" : {
                        "POSITION" : 2
                    },
                    "indices" : 1,
                    "material" : 1
                }
            ]
        },
        {
            "name" : "Cube.001",
            "primitives" : [
                {
                    "attributes" : {
                        "POSITION" : 3
                    },
                    "indices" : 1,
                    "material" : 2
                }
            ]
        }
    ],
    "accessors" : [
        {
            "bufferView" : 0,
            "componentType" : 5126,
            "count" : 8,
            "max" : [
                1,
                1,
                1
            ],
            "min" : [
                -1,
                -1,
                -1
            ],
            "type" : "VEC3"
        },
        {
            "bufferView" : 1,
            "componentType" : 5123,
            "count" : 36,
            "type" : "SCALAR"
        },
        {
            "bufferView" : 2,
            "componentType" : 5126,
            "count" : 8,
            "max" : [
                1,
                1,
                1
            ],
            "min" : [
                -1,
                -1,
                -1
            ],
            "type" : "VEC3"
        },
        {
            "bufferView" : 3,
            "componentType" : 5126,
            "count" : 8,
            "max" : [
                1,
                1,
                1
            ],
            "min" : [
                -1,
                -1,
                -1
            ],
            "type" : "VEC3"
        }
    ],
    "bufferViews" : [
        {
            "buffer" : 0,
            "byteLength" : 96,
            "byteOffset" : 0
        },
        {
            "buffer" : 0,
            "byteLength" : 72,
            "byteOffset" : 96
        },
        {
            "buffer" : 0,
            "byteLength" : 96,
            "byteOffset" : 168
        },
        {
            "buffer" : 0,
            "byteLength" : 96,
            "byteOffset" : 264
        }
    ],
    "buffers" : [
        {
            "byteLength" : 360,
            "uri" : "data:application/octet-stream;base64,"
        }
    ]
}
