{
    "asset" : {
        "generator" : "Khronos glTF Blender I/O v1.8.19",
        "version" : "2.0"
    },
    "scene" : 0,
    "scenes" : [
        {
            "name" : "Scene",
            "nodes" : [
                2
            ]
        }
    ],
    "nodes" : [
        {
            "mesh" : 0,
            "name" : "top",
            "translation" : [
                -0.015063902363181114,
                1.328806757926941,
                0.03636752441525459
            ]
        },
        {
            "mesh" : 1,
            "name" : "wing.001",
            "rotation" : [
                0.21392129361629486,
                0.7660490870475769,
                -0.3173079490661621,
                0.5164516568183899
            ],
            "scale" : [
                0.01093366090208292,
                0.0920468270778656,
                0.45666471123695374
            ],
            "translation" : [
                -0.22920115292072296,
                1.1236310005187988,
                -0.5525702834129333
            ]
        },
        {
            "children" : [
                0,
                1
            ],
            "mesh" : 2,
            "name" : "mill",
            "rotation" : [
                0,
                -0.1910334825515747,
                0,
                0.9815835356712341
            ]
        }
    ],
    "materials" : [
        {
            "doubleSided" : true,
            "extras" : {
                "diffuse_color" : [
                    1.0,
                    0.0,
                    0.0
                ],
                "ambient_color" : [
                    0.10000000149011612,
                    0.10000000149011612,
                    0.10000000149011612
                ],
                "specular_color" : [
                    1.0,
                    1.0,
                    1.0
                ],
                "shininess_factor" : 5.0
            },
            "name" : "Material.005",
            "pbrMetallicRoughness" : {}
        },
        {
            "doubleSided" : true,
            "extras" : {
                "diffuse_color" : [
                    1.0,
                    0.0,
                    0.0
                ],
                "ambient_color" : [
                    0.10000000149011612,
                    0.10000000149011612,
                    0.10000000149011612
                ],
                "specular_color" : [
                    1.0,
                    1.0,
                    1.0
                ],
                "shininess_factor" : 5.0
            },
            "name" : "Material.006",
            "pbrMetallicRoughness" : {}
        },
        {
            "doubleSided" : true,
            "extras" : {
                "diffuse_color" : [
                    1.0,
                    0.0,
                    0.0
                ],
                "ambient_color" : [
                    0.10000000149011612,
                    0.10000000149011612,
                    0.10000000149011612
                ],
                "specular_color" : [
                    1.0,
                    1.0,
                    1.0
                ],
                "shininess_factor" : 5.0
            },
            "name" : "Material.004",
            "pbrMetallicRoughness" : {}
        }
    ],
    "meshes" : [
        {
            "name" : "top.001",
            "primitives" : [
                {
                    "attributes" : {
                        "POSITION" : 0
                    },
                    "indices" : 1,
                    "material" : 0
                }
            ]
        },
        {
            "name" : "Cube.001",
            "primitives" : [
                {
                    "attributes" : {
                        "POSITION" : 2
                    },
                    "indices" : 3,
                    "material" : 1
                }
            ]
        },
        {
            "name" : "body.001",
            "primitives" : [
                {
                    "attributes" : {
                        "POSITION" : 4
                    },
                    "indices" : 5,
                    "material" : 2
                }
            ]
        }
    ],
    "accessors" : [
        {
            "bufferView" : 0,
            "componentType" : 5126,
            "count" : 208,
            "max" : [
                0.5689572095870972,
                0.38917338848114014,
                0.5175257921218872
            ],
            "min" : [
                -0.538829505443573,
                -0.345875084400177,
                -0.6172440052032471
            ],
            "type" : "VEC3"
        },
        {
            "bufferView" : 1,
            "componentType" : 5123,
            "count" : 330,
            "type" : "SCALAR"
        },
        {
            "bufferView" : 2,
            "componentType" : 5126,
            "count" : 80,
            "max" : [
                1.0000241994857788,
                10.048871994018555,
                2.013914108276367
            ],
            "min" : [
                -1.0121403932571411,
                -9.934078216552734,
                -2.013914108276367
            ],
            "type" : "VEC3"
        },
        {
            "bufferView" : 3,
            "componentType" : 5123,
            "count" : 120,
            "type" : "SCALAR"
        },
        {
            "bufferView" : 4,
            "componentType" : 5126,
            "count" : 40,
            "max" : [
                1,
                1,
                1
            ],
            "min" : [
                -1,
                -1,
                -1
            ],
            "type" : "VEC3"
        },
        {
            "bufferView" : 5,
            "componentType" : 5123,
            "count" : 66,
            "type" : "SCALAR"
        }
    ],
    "bufferViews" : [
        {
            "buffer" : 0,
            "byteLength" : 2496,
            "byteOffset" : 0
        },
        {
            "buffer" : 0,
            "byteLength" : 660,
            "byteOffset" : 2496
        },
        {
            "buffer" : 0,
            "byteLength" : 960,
            "byteOffset" : 3156
        },
        {
            "buffer" : 0,
            "byteLength" : 240,
            "byteOffset" : 4116
        },
        {
            "buffer" : 0,
            "byteLength" : 480,
            "byteOffset" : 4356
        },
        {
            "buffer" : 0,
            "byteLength" : 132,
            "byteOffset" : 4836
        }
    ],
    "buffers" : [
        {
            "byteLength" : 4968,
            "uri" : "data:application/octet-stream;base64,"
        }
    ]
}
